<mxfile host="app.diagrams.net" modified="2021-01-19T08:37:20.014Z" agent="5.0 (Windows NT 10.0; Win64; x64) AppleWebKit/537.36 (KHTML, like Gecko) Chrome/87.0.4280.141 Safari/537.36" etag="xnXa0qNnNAKIfHT__0im" version="14.2.4" type="github">
  <diagram id="t1MQwib7pqS1o--2s2gj" name="Page-1">
    <mxGraphModel dx="1038" dy="212" grid="1" gridSize="10" guides="1" tooltips="1" connect="1" arrows="1" fold="1" page="1" pageScale="1" pageWidth="827" pageHeight="1169" math="0" shadow="0">
      <root>
        <mxCell id="0" />
        <mxCell id="1" parent="0" />
        <mxCell id="Sq_bgwTCUnmW-On9Ixi4-1" value="" style="shape=image;verticalLabelPosition=bottom;labelBackgroundColor=#ffffff;verticalAlign=top;aspect=fixed;imageAspect=0;image=data:image/png,iVBORw0KGgoAAAANSUhEUgAAAIgAAACdCAYAAABvoTB6AAAAAXNSR0IArs4c6QAAAARnQU1BAACxjwv8YQUAAAAJcEhZcwAAEnQAABJ0Ad5mH3gAABWLSURBVHhe7Z15jCXHWcAHjAREQiJ2QuI4iUSMFGxyKDGsYieQWE4CQSZrBQIiWSJtUKwgEUBIhCMS2j+MxEoY7R9cEpEcsSIBCdnYxHv4Wu81szN7zIx342PX3mNm53zvzX3tzs4W9VXV111V/VVXdb/3Zt6+rpJ+mpnq6u6q7/t1Vb/u2Z2esUXG2sGp06fZ+vp6LtddXM/jOrvmZF1yjX9vsQZfRZtr4nuda9d43ZrC2rYq6kxOnznDFhYW2Pz8PJubmxMMv3KWvT7aIGPRqYSULhMEoAURiO1ZCcoIsri4aEgyOzvLhkCSqzNkPDqRkLKlggBtEQQQibcQ27MSFBXkjBKEkmRwaJidH58jY9JphJRNEOSGRisEAQEw2RStF8SWBARZWloyBAFAkEajwU4NDrHzE/NkXDqJkBIFUduaFQRnkJmZGVav19npwWH2RofPJCFlEwXJygEUFwQT7WJzZhDXEgOCwCxSq9XFTNLJ9yQhZUvuQeDqm5qaEkxSTOYxmYO/3QSBqJ/Q4D8vLi0nguhyAPgpRl9ebEFgFqnVarztYMdKElLaJsjJHEHW1tbkFE2x6INftbks8cTxrxbz8JVvn4ekqp8RmWiFqltZXfMKgmLocuASg4LARXDy9JmO/AgcUtonyKlTpBw6xZcXAJcKCvfyAsmWbSDJ5jJS5mOuSw6cPVCQ6elpIcnAyVPstQ6TJKRsmSCkHIAhAwUmmqK4IHI7rysoiEsOfXkBOVAQWMb6B0521HITUjZdEFIKxBCBApPswi0ItpFJTgWQ23ldEUH48gliuOQAbDmA8fFx1tc/0DHPSUJKWwUhJcjDkIEiTTSNT5CsAHI7rycEATlcgqAYlBz60oKCTExMCEGuXr3Kerkkb4zNknHbTEJK5whiiECTFUInRw5AtDEFAGBbIkcBQWwpbDns2QMFGRsbY6Ojo+z4if4tX25CSmcIokngBpPswi2IEEG0MQUQ9ZB0Qg7AJ4hLjDw5AJhFRkZGWC+X5LUtlCSkbIkgUzyAQ8PDkqFQhnIIbRdOnQtAyQF1IIguhj1r+OSAGQS4cuUKO97bt2UfgUPK1swgxswQAs4ALsovL0VvUFEQe8bIkwMF0eWAGQQEuXz5Mjt2vHdLJAkpbRNkAAQxklwWTHAe5QVJ5LAEAREoQaAdCJInRogcKAhylEvy6iZLElLaJ8jJVgiCyc0jVA7AlKPM/QcKglJQYlDLCjV72IAkm/kWOKS0UZCTRMKLgMn14RZEiCDaQHJNAWQbmXCXILYcoo7zyitn2cGDB9mBohww2W/x7LP72MkfXSTj2Q5CSocKgon1UW72AAw5hAymHHmCrK6usZmZWX6zXQuEL0PIlGSSYGRkNAqSz3VBVgQKjxyAaAfJteUAZLJtOQBKkKROY3llNZCVlGXJEkGDSxcFUZiv5s113E/+fsZrfAJRr7/eV6/4gXH+PaDXYb29D7bNh9+PIOMT/NxTYgaCt8U2s7NzXJC3yHi2g5CyZYLgL9z4X99TLMmv4lV9FvEKX2ynXu2reuv1PjLH6wD5awEpok4D2/mZT5mD3x1ZiIIAUhC5ZEgp8PuU7LLhQy0rgFgmHIi2uDyYywds15cJe7u9tLiWF6zzs5bCJXDJAVRKkH4uSDbBzVBEDkg2JNdMvmyjJdrajkmlBNHlAFIBfJhyREEUrRWkmBzUjSmQ98kFgIRScoh6jTT5PpQcUZAs8MsxZpLL0io5AC3R1nZMKiWILgeQCuAjKwglBlIxQQa0pJUhUAxE7COTaidftjGTbLeBhNpyAKJewxTAhylHiCADURAfmhibKAfgkwNIk+9DyREFoTnhESTsVT/9Kr6VDCpC6rGuEIMm5879iJQDiIIkWLOEjrjiA0iOJa92e1YAZFttBrC2A3jFb/XsAVRQEEIACp6oQpSRA7DaYEIpOUS9BtaFEQXxcqLfIYhIXDlE4g05zIQjsr2ZYKodJNOWAwUx9uWYAuRRTg6geoLwJLSMgFkDkO3N5FLtIJm2GICotzAF8NGkIOeiIMFAInUxWikHQMkh6i2w3k95OYAoSBEKiwGYiaXaYjJtOQBRb5EmP4QoSDA+QajX84ir3oVoO0FgtcNX8Jlter1G+so+BPO1PjJmMTE5RcoBzAhB3iTj2Q5CShsF6SfFwCtZvHo3XuEvpCSv2c1X8Tr42t54dY9YbQF8/W6/xgdEPUH6yj4E87U+MmsBbSk5gEoJ0geCJMtEHnIJ8S0jOlI2vg+051N7gtUOwSXAXlIAUU+QLhshNLe0IBUUJE0+hUwSnVSKdCYykynQ2ulgEm0xgGSbBdaHockRBQmn70Q/TwKdtKLkigFobXUwie2TA2iNHEAUpAC6FEXFADCBt4ocAAjSHwVxk0rRHjGAZLsF1oejyREFCeO1vnPs7EsDghe++z02crSPZDRDb8qRXjaSB29PwrddUch2WYztGlhfjOMph1MuN8H5519iL/7nU0kMR2fXyTi3ipDSUkH23fMJNtZzO8lVglGCEYIrBJcJLhFcJHgrgDcJLhCcJ3iD4HWC1wheVRzpeTu7dKW9/1Y3pLRUkOe4IAs9d7B5izmCWYIZggZBPcPtrEYwbTHlYJJgwmKcoJ0XwkA3CnKQCxLlaF6OyggS5SgnRyUEiXKUlwPup7pakChHc3J0tSBRjublqJQgUY7icgD9VRAkRI65u+9ji4/8QYYFxfxntrOZ93+U1X/sjmA5Zj7zW2zukR0GsxqNT32B1e7+OJv4iZ8rLsdt72T1z36J1flxfNQ4V2+/u7AclRAkRA5g+c++o7riKDc22M3VVbZ+cpDN//rvsJomCiUHcP3UoNrZUW7c4MdcYxu1Blv57l5W/8Tn2QQ/rlcO4G13sfULF9WB/GXqk79RWA54wNfVgoTKAcuIVxC93LzJVv7hn4QkLjmCBLHLxgZbO/Aim7rrl3LlgGWkrCBF5LjE5ejv+dnuFKSIHLYgN5eW2cpj/8hWdu2W/N3jbH3gjLji9bL4rb9yymELsj50li3xYwGLitX/epLdeOtS5rgbk9Ns+t77nXJQglw7eoLN82O6GHvfhwvLUSlB8uSwBdmYrrHG295r3pDy2WJ++1fZzQV+AlU2JqdY7afuJOWwBVn93g/oG9Lb3sHqn36YXTt2QsxMWG5cvMIm+H0DJQclyMLf72n6htSWAzhRBUF8crgFSW9CkdV/e0K1kmX2k18g5QAoQQw5OLiUTPCEr/z3U6q1LIuP/wspR54grZTjYhUECZGDFuSujBzA3G/+nnGlz//u10k5QAZdkBUuiEsOZPKOXxDLC5aNiSk+i3wgI4eAEKTVcnS9IKFywFKyZAlSJwSBpWTu879tCDL35Z2kHD5BbDkAmCnmv/OY2oOX9XVW48uPLQfMFLYg84QgzcrR1YIUkSNEELwRXX7scdVKlsYvP0TKkSeISw6gxpcs+DSDZfZbf5mRI0SQVsjRtYIcIATJk8MnCMrR+MDH2EatrlrJJWCK37xScrgEyZMDmOQfcfVPNYuP/3NGDkqQVf7xeOabf57Q0Jjmy2IZOSojiE8OKcjfqK6YgoAY9TvvYQt/+CdsY3xStZBl8U//2ikHJYhPDmD8Z94vlhYsKIguByVIXlnZ/0IpOYC+bhckRA74tKIL4i38HgSeYeDsQckBs4VPEFsOIcjbfz4jiC2HoAlBQuV4i9PVgoTKATNFqCAb9QZb4jeSUz/+jlw5fIJQcsBMMfnBbcYSM/cXf5uRA+4xbEFWntnP6l/5RkJNY/LBL5aSo6sFKSJHRhB+Ba8Pn2Prg2cTVp/4Ppv/2h+x2nvuzV1WUI48QVxyAPXtO9JPSVyUGv/UZMtBCQI3qc3ekCIoR6UEyZPDFgTuQWo8AXD/gTLY+ORwCZInx1W+ZK3+8KDaQ85WY+/6YEYOnyCtkqMygvjkcAlCiQGEyAEy6IIsc0Fy5eDUPvcldvP6dbUHY0v/+gQpR54grZQD6O12QULkABYtQaYdgoTKESKILsfUR36VbTRmVGvoQ52Nv+/DpBwCQpBWy/Emp6sFCZUDlpIQQYrI4RMExRj7yXez2T/+Nru5uKRa8sLvPeAXfVxywEwRIkizcnS1IEXkCBGkqBy2INeHzrKFXbsN1l48wsXgHdbKzeVl1vj9b+TKESJIK+ToWkH2ZwTJl8MnSBk5bEF8Be491o6dYJMf/TWvHD5BWiVHRQTxy5EnSFk5YBnxCQLnWb94mS39+3+w6Qe3s9Hb3hkkR54grZTjAqfLBQmTA0SovesX2cyvPCRofOzT4kFYM3IAU/fez6b58VyM33kPu/rT7xFSICFyAJd5/8Y/8ik2DsfhjL73Qy2Xo8sFyYrhkoOiWTl09E8riC5FYTkI2iFHVwsS5chSVI5KCRLlKC4HcLwKgkQ5yskBdL0gUY7ycpzndLUgUY7m5OhqQaIczcvRtYLAf2IX5WheDuBYNwpy4JvfZs8+/FXB9+//LHvmc4+U5ukW878t4qk28KTifx76IvvBg9vZ0zx+Tz38FXZ5YpGMc6sIKS0VROe551/Q/lTGZmH+KQ7Xn+ToVC5evMT6hs+T8WwHIaVtghw6fIQtLC5tEupPiiyYUH8WpJOZmp7mgrxBxrMdhJS2CXL46FHyv5tuHatsZYVm+RalMTMTBSkHLQJCBftWBATprYwgR4oIwhOtw4OVBxXcbqB6gvBBNwsVyG4lCqKATxZnBgcrydlz50g5gEoJ8vKRI2QQIm7qUZBIHlGQSC5RkEguUZBILvVGFCSSgxBkqCKCHIqCFKZaghyOghQlChLJpWKCHFZ/gDgSSmNmlgvyOhnPdhBS2ibI80f72cHDfVle1ullB1wcStl/6DjNSyn7XjpG86Lk2YSjNC9IfphwhOT/ntc5TPPcYfaMwcsZnj5IcYi9OlIn49kOQkrbBIl0PiElClJhQkoUpMKElChIhQkpUZAKE1KiIBUmpERBKkxIiYJUmJASBakwISUKUmFCShSkwoSUQEEusF3belhPTwG27WHH+b57dxLbgJ17xDHv230hPc/wHnZfzwNs13Dz57X7vuPJnL4o0r7sYzuMbXqfOKKf8pjpeSS+czjZuY/v34rxhhNSCs8gx3c/oAZDb6eAoGHwzf3T5NntqO1ennw0GzCRzEfZXv599vgp5jYQRO6j759u42238XHY4hSCGlsLxluAkFJYkLwgu3ALokEOVgVs56PaOakgQtJ4snZnj6Gfr4wgsL9Zz69a7D/0ubQkXSmIHAA51SVkAwbBN9rwAIvE6XUGeMViwOCrOq5ahuAKTs6DgcoETImj2hUXRNtfyEAkT9Wbx1UiEaT7+wVxxkgXtLMEwcBR2wAzIYgefGoGoeokWsBUMPZiWxBFBSc5vh0wkby0vxlRLTKCwP6JzHnjlv1Mx0DFyRYiTBBTPCtWHSdIZj22cGxviSCYBE1AsR+fSZJzGgHD9ml/jFnC6quxTSV4lzh+mgC3YPaYqyqIr0M5ghgBVZ9gjDoLGZhswMxkQCK0xGr9k4F8lEiUIld2TDCVxBAqKojROQoIOtFh3wwiBaKSpQcMvod7D3sW4PviObWA7eVyyHsI/GoK6ETsnyY46S8cG/toJUa0McZdZUGooOoQHc4XBIIpE28GC9AChsFIrnzcRrQxjm0nisPb3QefjOC8fDbLBljbD44p+gt12EfZZ7nU6fWIrKPik7YLE4Q6RscK4sXR4UQQ2J4MVCYgEYac8k0JULJkybIDlTm/lmi7Ds/H97GvUmM/OKY6jziv9n0ypsyYqfPahAli9824wMhzhxNSWi8Idl6RJFMl1BigSJJ102nsrwK225bHToBqx2eFfEHgZ3U+TUjoo5koaJf2O9kG41P7iL5u4/c4mrjF8Avi5VYTJJvgLGkbmQQqQOkx1M9KrrSdg4ygmiBCCO181oylzw5ZsRxowpDbc9FkTeq08YbSEYKIQBCd80BdWVIQ+HThvlLSZAVcUVbfzHOqRFszlcASBDDl1bYpufTzUHhnEjuOmeR2+QwSubUIKVGQChNSoiAVJqREQSpMSImCVJiQEgWpMCElClJhQopHEO1hjv3cgHq2QEA9PBN1+vOAhJCHTvCswH/eDOIZRIn9OLK/5fZNnqFYMSAxnmtA7O346ITEKp+Qki/I8AX1ckwFBwagPcCSD4bsgWiBtB8wGUHS5EvaqkHz87gfOpUUhCMewOU+WPIlhSInUWr88sWg7wGY+yFZ5iKD4zbxgAwJKeWWmIzpmLCQ7xXGMeyfZaLogOYL4p6d8klldx87gy41uU17uqp+dkkC/ca25mN//WJU7TtPENlJOrB7SBHEIIn28opLBdATmgkCHhfkSfancF/F0A/juIVQ4w5ZHjRwTBkZbGn0eky4GKs2HvtnrOsEQUyTFWKQeodlstNkpVcg7J9IAMdRASKDR6BfVSnWVZ7pj0khQbwi0iTHx/HlJg8vtrTP+kUCJLFR/bFjlcRTqytDSPHOIEISGDBamyQEEoVfszNIsq82cIkMTJK4wldDEUHcMx/ikkckgeqXOJ92foUcK/YDzpttYyQWZdISrW83jwfAuLHf2WOXIaSE34OUFCQ7g/B9MDgEacIgyHqAkCKCyKC6ZqtE0sy2fWwXymv1LzPdkwQIYgPjKHShNE9I8QuCYrRQkB1wdWCgXDOICBg/PvxjqEySHNjHEefLJkoiZxdTkJwZR/RXCpfWu45txgFxCyIvBhEXdWyIm5xFHLRAppDiFSQZlPNqcgeNHqB1BToEgfNSV7fojzMxJqKtM5BSBtfsYkIn3E1RQWQM7b44ZzjXRVWQkBJ0D2J0MukcDIonO5lRYLsemHSaTQKjrmj4BeWsOApx7HRfvS/pjKDOrW/LQAc9b7uUj+iTh0wSjZikuAWhuQUEyV5lbmHgZ12QNImmIFbgqMFCXSaQMqHJuR1JkMh+5wdR76sb2Xf4DbgH+BJAz2o2YuYkRPAKAuNW0kHMwwSRcSkiHhJSPIKkSRY/J1dw2sYchBZ0KsmBgsAxbSkxaFgnEMezg6PkcMqjEMlwtVFB58ixpeNKZhmHfLKv9HGdgqAY1jYcN0lyfjXeLRHESB7RkUxy00Du5VdbKlIa8MxACEESSAGyYNLwqqOOlyRWwxYuTYidYE18rMO+Aap/rnMj3hnEAo7nn0HKE1JyBdEHJAZvDA6EwaDhVZsfoEhnEVK8N6mR7iWkREEqTEiJglSYkBIFqTAhJQpSYUJKFKTChJQoiMDxsEl71hHyBPVWI6REQQSUIPLhXjeKgYSUKIiAEETMHtbT0y4jpERBBIQg4v1IFKRrBEneg+jvSAD7vgIQydfbqP91UbVN38kg3SmKvzD2/2+EjJAaZXmcAAAAAElFTkSuQmCC;" vertex="1" parent="1">
          <mxGeometry x="150" y="90" width="136" height="157" as="geometry" />
        </mxCell>
      </root>
    </mxGraphModel>
  </diagram>
</mxfile>
